<svg xmlns="http://www.w3.org/2000/svg" viewBox="0 0 24 24" fill="white">
<path d="M22.282 9.821a5.985 5.985 0 0 0-.516-4.91 6.046 6.046 0 0 0-6.51-2.9A6.065 6.065 0 0 0 4.981 4.18a5.985 5.985 0 0 0-3.998 2.9 6.046 6.046 0 0 0 .743 7.097 5.98 5.98 0 0 0 .51 4.911 6.051 6.051 0 0 0 6.515 2.9A5.985 5.985 0 0 0 13.26 24a6.056 6.056 0 0 0 5.772-4.206 5.99 5.99 0 0 0 3.997-2.9 6.056 6.056 0 0 0-.747-7.073zM13.26 22.43a4.476 4.476 0 0 1-2.876-1.04.57.57 0 0 0 .12-.066l4.78-2.76a.795.795 0 0 0 .396-.679v-6.734l2.02 1.168a.071.071 0 0 1 .038.052v5.583a4.504 4.504 0 0 1-4.478 4.476zM3.545 18.57a4.476 4.476 0 0 1-.535-3.014.571.571 0 0 0 .144.084l4.78 2.76a.795.795 0 0 0 .787 0l5.843-3.369v2.332a.071.071 0 0 1-.028.063L9.735 20.58a4.5 4.5 0 0 1-6.19-2.01zm-1.4-9.762a4.497 4.497 0 0 1 2.34-1.97V12.3a.791.791 0 0 0 .392.679l5.843 3.374-2.02 1.168a.071.071 0 0 1-.068.005L4.222 15.14a4.5 4.5 0 0 1-2.077-6.332zm16.63 3.855l-5.843-3.38 2.02-1.163a.07.07 0 0 1 .069-.005l4.61 2.662a4.497 4.497 0 0 1-.695 8.112v-5.585a.79.79 0 0 0-.16-.64zm2.01-3.028a.57.57 0 0 0-.144-.084l-4.78-2.76a.795.795 0 0 0-.787 0L9.628 10.44V8.107a.071.071 0 0 1 .028-.063l4.802-2.772a4.5 4.5 0 0 1 6.68 4.66zm-12.64 4.135l-2.02-1.164a.07.07 0 0 1-.038-.052V7.97a4.5 4.5 0 0 1 7.375-3.453.57.57 0 0 0-.12.066L9.555 7.342a.795.795 0 0 0-.393.679zm1.097-2.365l2.602-1.5 2.607 1.5v2.999l-2.597 1.5-2.607-1.5z"/>
</svg>
